<?xml version="1.0" encoding="utf-8"?>
<!-- Generator: Adobe Illustrator 17.0.0, SVG Export Plug-In . SVG Version: 6.00 Build 0)  -->
<!DOCTYPE svg PUBLIC "-//W3C//DTD SVG 1.1//EN" "http://www.w3.org/Graphics/SVG/1.1/DTD/svg11.dtd">
<svg version="1.1" id="Capa_1" xmlns="http://www.w3.org/2000/svg" xmlns:xlink="http://www.w3.org/1999/xlink" x="0px" y="0px"
	 width="670px" height="670px" viewBox="0 0 670 670" enable-background="new 0 0 670 670" xml:space="preserve">
<g>
	<g>
		<path fill="#FFFFFF" d="M382.654,1.26c-5.025-2.261-10.86-1.451-14.964,2.205L148.323,195.419H41.877
			c-23.087,0-41.875,18.787-41.875,41.875V432.71c0,23.087,18.787,41.875,41.875,41.875h106.446L367.69,666.539
			c2.596,2.289,5.862,3.461,9.185,3.461c1.954,0,3.936-0.419,5.779-1.256c4.997-2.261,8.18-7.23,8.18-12.702V13.963
			C390.833,8.49,387.65,3.521,382.654,1.26z M362.917,625.278L162.728,450.13c-2.54-2.234-5.806-3.461-9.185-3.461H41.877
			c-7.677,0-13.959-6.281-13.959-13.959V237.294c0-7.677,6.281-13.959,13.959-13.959h111.666c3.377,0,6.644-1.229,9.185-3.461
			L362.917,44.726V625.278z"/>
	</g>
</g>
<g>
	<g>
		<path fill="#FFFFFF" d="M490.243,239.416c-1.954-7.481-9.687-12.116-17.001-9.966c-7.454,1.926-11.92,9.547-9.966,17.001
			c7.481,28.754,11.306,58.568,11.306,88.551c0,29.926-3.796,59.713-11.279,88.467c-1.983,7.426,2.485,15.075,9.966,17.001
			c1.172,0.335,2.372,0.475,3.517,0.475c6.225,0,11.865-4.16,13.484-10.441c8.124-31.044,12.227-63.203,12.227-95.502
			C502.5,302.618,498.396,270.459,490.243,239.416z"/>
	</g>
</g>
<g>
	<g>
		<path fill="#FFFFFF" d="M551.326,158.793c-2.931-7.119-11.082-10.525-18.23-7.565c-7.119,2.931-10.496,11.111-7.565,18.23
			c21.747,52.538,32.802,108.232,32.802,165.545c0,57.341-11.027,113.006-32.774,165.462c-2.931,7.119,0.446,15.299,7.565,18.23
			c1.731,0.726,3.545,1.061,5.332,1.061c5.471,0,10.664-3.239,12.897-8.599c23.142-55.861,34.896-115.128,34.896-176.153
			C586.249,274.005,574.495,214.71,551.326,158.793z"/>
	</g>
</g>
<g>
	<g>
		<path fill="#FFFFFF" d="M608.638,83.67c-3.574-6.84-12.032-9.436-18.844-5.919c-6.811,3.574-9.491,12.004-5.919,18.844
			c38.079,73.03,58.206,155.467,58.206,238.407c0,82.885-20.1,165.265-58.122,238.267c-3.574,6.84-0.894,15.27,5.919,18.844
			c2.066,1.061,4.271,1.591,6.449,1.591c5.025,0,9.91-2.736,12.395-7.51c40.089-76.993,61.277-163.841,61.277-251.192
			C669.999,247.567,648.781,160.692,608.638,83.67z"/>
	</g>
</g>
</svg>
