<?xml version="1.0" encoding="utf-8"?>
<!-- Generator: Adobe Illustrator 17.0.0, SVG Export Plug-In . SVG Version: 6.00 Build 0)  -->
<!DOCTYPE svg PUBLIC "-//W3C//DTD SVG 1.1//EN" "http://www.w3.org/Graphics/SVG/1.1/DTD/svg11.dtd">
<svg version="1.1" id="Capa_1" xmlns="http://www.w3.org/2000/svg" xmlns:xlink="http://www.w3.org/1999/xlink" x="0px" y="0px"
	 width="670px" height="670px" viewBox="0 0 670 670" enable-background="new 0 0 670 670" xml:space="preserve">
<g>
	<g>
		<path fill="#FFFFFF" d="M572.291,167.5H432.709c-7.705,0-13.959-6.281-13.959-13.959V13.959C418.75,6.254,412.496,0,404.791,0
			H125.625C102.537,0,83.75,18.787,83.75,41.875v586.25c0,23.088,18.787,41.875,41.875,41.875h418.75
			c23.088,0,41.875-18.787,41.875-41.875V181.459C586.25,173.754,579.996,167.5,572.291,167.5z M558.334,628.125
			c0,7.678-6.254,13.959-13.959,13.959h-418.75c-7.705,0-13.959-6.281-13.959-13.959V41.875c0-7.678,6.254-13.959,13.959-13.959
			h265.209v125.625c0,23.088,18.787,41.875,41.875,41.875h125.625V628.125z"/>
	</g>
</g>
<g>
	<g>
		<path fill="#FFFFFF" d="M582.146,171.604l-167.5-167.5c-5.444-5.444-14.294-5.444-19.738,0c-5.444,5.444-5.444,14.294,0,19.738
			l167.5,167.5c2.736,2.707,6.309,4.076,9.883,4.076c3.574,0,7.146-1.367,9.855-4.076
			C587.59,185.898,587.59,177.048,582.146,171.604z"/>
	</g>
</g>
<g>
	<g>
		<path fill="#FFFFFF" d="M460.625,251.25h-251.25c-7.705,0-13.959,6.254-13.959,13.959c0,7.705,6.254,13.959,13.959,13.959h251.25
			c7.705,0,13.959-6.254,13.959-13.959C474.584,257.504,468.33,251.25,460.625,251.25z"/>
	</g>
</g>
<g>
	<g>
		<path fill="#FFFFFF" d="M460.625,362.916h-251.25c-7.705,0-13.959,6.254-13.959,13.959s6.254,13.959,13.959,13.959h251.25
			c7.705,0,13.959-6.254,13.959-13.959S468.33,362.916,460.625,362.916z"/>
	</g>
</g>
<g>
	<g>
		<path fill="#FFFFFF" d="M460.625,474.584h-251.25c-7.705,0-13.959,6.254-13.959,13.959c0,7.705,6.254,13.959,13.959,13.959h251.25
			c7.705,0,13.959-6.254,13.959-13.959C474.584,480.836,468.33,474.584,460.625,474.584z"/>
	</g>
</g>
</svg>
