<?xml version="1.0" encoding="utf-8"?>
<!-- Generator: Adobe Illustrator 17.0.0, SVG Export Plug-In . SVG Version: 6.00 Build 0)  -->
<!DOCTYPE svg PUBLIC "-//W3C//DTD SVG 1.1//EN" "http://www.w3.org/Graphics/SVG/1.1/DTD/svg11.dtd">
<svg version="1.1" id="Capa_1" xmlns="http://www.w3.org/2000/svg" xmlns:xlink="http://www.w3.org/1999/xlink" x="0px" y="0px"
	 width="670px" height="670px" viewBox="0 0 670 670" enable-background="new 0 0 670 670" xml:space="preserve">
<g>
	<g>
		<path fill="#FFFFFF" d="M646.81,297.558L60.595,4.45C47.558-2.082,32.316-1.384,19.867,6.293
			C7.445,13.968,0.02,27.284,0.02,41.884V628.1c0,14.599,7.426,27.915,19.848,35.592C26.651,667.906,34.271,670,41.892,670
			c6.365,0,12.786-1.48,18.731-4.438l586.216-293.108c14.264-7.146,23.141-21.495,23.141-37.462S661.103,304.675,646.81,297.558z
			 M634.361,347.469L48.146,640.577c-6.281,3.182-11.584,0.586-13.594-0.614c-1.982-1.229-6.616-4.857-6.616-11.864V41.883
			c0-7.007,4.633-10.636,6.588-11.864c1.312-0.781,3.963-2.121,7.397-2.121c1.899,0,3.992,0.391,6.225,1.507l586.216,293.108
			c4.801,2.401,7.705,7.091,7.705,12.478S639.162,345.069,634.361,347.469z"/>
	</g>
</g>
</svg>
