<?xml version="1.0" encoding="utf-8"?>
<!-- Generator: Adobe Illustrator 17.0.0, SVG Export Plug-In . SVG Version: 6.00 Build 0)  -->
<!DOCTYPE svg PUBLIC "-//W3C//DTD SVG 1.1//EN" "http://www.w3.org/Graphics/SVG/1.1/DTD/svg11.dtd">
<svg version="1.1" id="Layer_1" xmlns="http://www.w3.org/2000/svg" xmlns:xlink="http://www.w3.org/1999/xlink" x="0px" y="0px"
	 width="1397.812px" height="344.873px" viewBox="0 0 1397.812 344.873" enable-background="new 0 0 1397.812 344.873"
	 xml:space="preserve">
<g id="Layer_2" display="none">
	<g display="inline">
		<path d="M138.173,104.926c-7.227,6.143-14.183,10.479-20.867,13.008c-6.685,2.529-13.858,3.794-21.517,3.794
			c-12.647,0-22.367-3.089-29.159-9.268c-6.793-6.179-10.189-14.073-10.189-23.685c0-5.637,1.282-10.786,3.848-15.447
			c2.564-4.661,5.925-8.401,10.081-11.219c4.155-2.818,8.834-4.949,14.038-6.396c3.83-1.011,9.61-1.987,17.344-2.927
			c15.753-1.878,27.352-4.119,34.796-6.721c0.071-2.673,0.108-4.372,0.108-5.095c0-7.949-1.843-13.55-5.528-16.802
			c-4.986-4.407-12.395-6.612-22.222-6.612c-9.178,0-15.953,1.609-20.325,4.824c-4.373,3.216-7.606,8.907-9.702,17.073
			l-19.078-2.602c1.734-8.166,4.588-14.759,8.563-19.783C72.338,12.047,78.083,8.18,85.6,5.47c7.515-2.71,16.223-4.065,26.124-4.065
			c9.827,0,17.813,1.157,23.956,3.469c6.142,2.313,10.659,5.222,13.55,8.726c2.89,3.506,4.914,7.932,6.07,13.279
			c0.65,3.325,0.976,9.322,0.976,17.994v26.016c0,18.14,0.415,29.611,1.247,34.417c0.83,4.807,2.475,9.414,4.932,13.821h-20.379
			C140.052,115.08,138.751,110.346,138.173,104.926z M136.547,61.35c-7.083,2.891-17.706,5.349-31.869,7.371
			c-8.021,1.157-13.695,2.458-17.019,3.902c-3.325,1.446-5.891,3.56-7.696,6.341c-1.807,2.783-2.71,5.872-2.71,9.268
			c0,5.203,1.968,9.539,5.908,13.008c3.938,3.469,9.702,5.203,17.29,5.203c7.515,0,14.2-1.643,20.054-4.932
			c5.854-3.288,10.152-7.786,12.899-13.496c2.095-4.407,3.144-10.911,3.144-19.512L136.547,61.35L136.547,61.35z"/>
		<path d="M186.519,119.126V4.007h17.452v16.151c3.613-5.637,8.418-10.171,14.417-13.604c5.998-3.432,12.827-5.149,20.487-5.149
			c8.526,0,15.518,1.771,20.975,5.312c5.456,3.542,9.303,8.492,11.544,14.851C280.5,8.126,292.351,1.405,306.949,1.405
			c11.417,0,20.197,3.162,26.341,9.485c6.142,6.324,9.214,16.062,9.214,29.213v79.022h-19.403V46.607
			c0-7.805-0.634-13.423-1.897-16.856c-1.265-3.432-3.56-6.196-6.883-8.292c-3.325-2.095-7.228-3.144-11.707-3.144
			c-8.095,0-14.815,2.693-20.162,8.076c-5.349,5.384-8.021,14.002-8.021,25.853v66.882h-19.512V44.331
			c0-8.672-1.59-15.176-4.77-19.512c-3.181-4.336-8.384-6.504-15.609-6.504c-5.493,0-10.569,1.446-15.23,4.336
			c-4.661,2.891-8.04,7.119-10.135,12.683c-2.097,5.565-3.144,13.587-3.144,24.064v59.728
			C206.031,119.126,186.519,119.126,186.519,119.126z"/>
		<path d="M371.447,163.244V4.007h17.777v14.959c4.19-5.854,8.924-10.244,14.2-13.17c5.274-2.927,11.67-4.39,19.187-4.39
			c9.827,0,18.499,2.53,26.016,7.588c7.515,5.059,13.188,12.195,17.019,21.409c3.829,9.214,5.745,19.313,5.745,30.297
			c0,11.78-2.114,22.384-6.341,31.815c-4.229,9.431-10.371,16.658-18.428,21.68c-8.06,5.022-16.531,7.534-25.42,7.534
			c-6.504,0-12.341-1.374-17.506-4.119c-5.168-2.746-9.414-6.214-12.737-10.406v56.042h-19.512V163.244z M389.115,62.217
			c0,14.815,2.998,25.763,8.997,32.845c5.997,7.083,13.26,10.623,21.788,10.623c8.672,0,16.098-3.667,22.275-11.002
			c6.18-7.334,9.269-18.699,9.269-34.091c0-14.669-3.019-25.653-9.052-32.953c-6.034-7.298-13.243-10.948-21.625-10.948
			c-8.312,0-15.664,3.885-22.059,11.653C392.313,36.111,389.115,47.403,389.115,62.217z"/>
		<path d="M570.032,104.926c-7.228,6.143-14.184,10.479-20.867,13.008c-6.685,2.529-13.857,3.794-21.517,3.794
			c-12.647,0-22.367-3.089-29.159-9.268c-6.794-6.179-10.189-14.073-10.189-23.685c0-5.637,1.282-10.786,3.848-15.447
			c2.564-4.661,5.925-8.401,10.082-11.219c4.154-2.818,8.834-4.949,14.037-6.396c3.829-1.011,9.61-1.987,17.344-2.927
			c15.753-1.878,27.352-4.119,34.796-6.721c0.071-2.673,0.108-4.372,0.108-5.095c0-7.949-1.843-13.55-5.528-16.802
			c-4.986-4.407-12.395-6.612-22.222-6.612c-9.179,0-15.953,1.609-20.324,4.824c-4.374,3.216-7.607,8.907-9.702,17.073
			l-19.078-2.602c1.734-8.166,4.588-14.759,8.563-19.783c3.974-5.022,9.719-8.889,17.235-11.599
			c7.515-2.71,16.223-4.065,26.124-4.065c9.827,0,17.813,1.157,23.956,3.469c6.142,2.313,10.658,5.222,13.55,8.726
			c2.89,3.506,4.913,7.932,6.07,13.279c0.65,3.325,0.976,9.322,0.976,17.994v26.016c0,18.14,0.415,29.611,1.247,34.417
			c0.829,4.807,2.474,9.414,4.932,13.821h-20.379C571.91,115.08,570.61,110.346,570.032,104.926z M568.406,61.35
			c-7.083,2.891-17.706,5.349-31.869,7.371c-8.021,1.157-13.695,2.458-17.019,3.902c-3.325,1.446-5.891,3.56-7.696,6.341
			c-1.808,2.783-2.71,5.872-2.71,9.268c0,5.203,1.968,9.539,5.908,13.008c3.938,3.469,9.701,5.203,17.289,5.203
			c7.515,0,14.2-1.643,20.054-4.932c5.854-3.288,10.152-7.786,12.899-13.496c2.095-4.407,3.144-10.911,3.144-19.512V61.35z"/>
		<path d="M618.161,119.126V4.007h17.561v17.452c4.479-8.166,8.618-13.55,12.411-16.151c3.795-2.602,7.968-3.902,12.521-3.902
			c6.575,0,13.26,2.097,20.054,6.287l-6.721,18.103c-4.77-2.818-9.539-4.228-14.309-4.228c-4.265,0-8.095,1.284-11.49,3.848
			c-3.397,2.566-5.818,6.125-7.263,10.677c-2.168,6.938-3.252,14.525-3.252,22.764v60.27L618.161,119.126L618.161,119.126z"/>
		<path d="M685.043,61.566c0-21.317,5.925-37.108,17.777-47.37c9.899-8.526,21.968-12.791,36.205-12.791
			c15.826,0,28.761,5.186,38.807,15.555c10.044,10.371,15.067,24.698,15.067,42.98c0,14.815-2.222,26.468-6.667,34.958
			c-4.443,8.492-10.912,15.086-19.402,19.783c-8.493,4.697-17.761,7.046-27.805,7.046c-16.116,0-29.143-5.166-39.078-15.501
			C690.011,95.893,685.043,81.007,685.043,61.566z M705.096,61.566c0,14.742,3.215,25.782,9.647,33.116
			c6.431,7.335,14.525,11.002,24.281,11.002c9.683,0,17.74-3.686,24.173-11.057c6.431-7.371,9.647-18.607,9.647-33.712
			c0-14.236-3.235-25.021-9.701-32.357c-6.469-7.334-14.509-11.002-24.119-11.002c-9.756,0-17.851,3.65-24.281,10.948
			C708.311,35.805,705.096,46.824,705.096,61.566z"/>
		<path d="M55.79,286.566c0-21.317,5.925-37.107,17.777-47.37c9.9-8.526,21.968-12.791,36.205-12.791
			c15.826,0,28.761,5.187,38.807,15.555c10.044,10.371,15.067,24.698,15.067,42.98c0,14.815-2.222,26.468-6.667,34.959
			c-4.444,8.492-10.913,15.086-19.403,19.782c-8.492,4.696-17.76,7.046-27.804,7.046c-16.116,0-29.142-5.166-39.078-15.501
			C60.758,320.894,55.79,306.007,55.79,286.566z M75.844,286.566c0,14.742,3.215,25.782,9.647,33.116
			c6.431,7.335,14.525,11.002,24.281,11.002c9.683,0,17.74-3.686,24.173-11.057c6.431-7.371,9.647-18.607,9.647-33.712
			c0-14.235-3.235-25.021-9.702-32.356c-6.468-7.334-14.508-11.003-24.119-11.003c-9.756,0-17.85,3.65-24.281,10.948
			C79.059,260.805,75.844,271.824,75.844,286.566z"/>
		<path d="M186.519,344.126V229.007h17.561v16.368c8.455-12.646,20.667-18.97,36.639-18.97c6.938,0,13.314,1.246,19.132,3.74
			c5.816,2.492,10.17,5.764,13.062,9.81c2.89,4.048,4.913,8.854,6.07,14.417c0.722,3.614,1.084,9.938,1.084,18.97v70.784h-19.512
			v-70.025c0-7.948-0.759-13.892-2.276-17.832c-1.518-3.938-4.21-7.081-8.076-9.43c-3.867-2.348-8.401-3.523-13.604-3.523
			c-8.311,0-15.484,2.639-21.517,7.913c-6.035,5.276-9.051,15.284-9.051,30.026v62.871H186.519z"/>
		<path d="M309.551,344.126V185.214h19.512v158.912H309.551z"/>
		<path d="M359.414,207.652v-22.438h19.512v22.438H359.414z M359.414,344.126V229.007h19.512v115.119H359.414z"/>
		<path d="M408.627,344.126V229.007h17.561v16.368c8.455-12.646,20.667-18.97,36.639-18.97c6.938,0,13.314,1.246,19.132,3.74
			c5.816,2.492,10.171,5.764,13.063,9.81c2.89,4.048,4.913,8.854,6.07,14.417c0.722,3.614,1.084,9.938,1.084,18.97v70.784h-19.512
			v-70.025c0-7.948-0.759-13.892-2.276-17.832c-1.518-3.938-4.211-7.081-8.075-9.43c-3.867-2.348-8.401-3.523-13.604-3.523
			c-8.312,0-15.484,2.639-21.517,7.913c-6.035,5.276-9.052,15.284-9.052,30.026v62.871H408.627z"/>
		<path d="M610.899,307.054l20.162,2.493c-3.181,11.78-9.07,20.921-17.669,27.425c-8.601,6.504-19.585,9.756-32.953,9.756
			c-16.839,0-30.188-5.185-40.054-15.555c-9.863-10.369-14.796-24.913-14.796-43.631c0-19.366,4.986-34.397,14.959-45.094
			c9.973-10.694,22.907-16.043,38.807-16.043c15.393,0,27.967,5.24,37.723,15.718c9.756,10.479,14.634,25.222,14.634,44.227
			c0,1.157-0.037,2.892-0.108,5.203h-85.852c0.722,12.647,4.299,22.33,10.731,29.051c6.431,6.721,14.452,10.081,24.064,10.081
			c7.154,0,13.26-1.878,18.319-5.637C603.924,321.291,607.935,315.292,610.899,307.054z M546.835,275.51h64.28
			c-0.867-9.683-3.325-16.945-7.371-21.788c-6.216-7.515-14.273-11.273-24.173-11.273c-8.962,0-16.495,3-22.601,8.997
			C550.863,257.444,547.486,265.466,546.835,275.51z"/>
	</g>
</g>
<g>
	<g>
		<path d="M339.838,242.768c-0.676-0.602-1.441-1.23-2.293-1.854c6.427-7.808,9.615-17.971,9.446-30.266
			c-0.168-13.63-4.414-24.503-12.661-32.338c-8.236-7.848-18.66-10.875-26.046-12.04l21.009-34.265
			c0.492-0.815,10.68-18.576,3.068-31.784c-4.827-8.426-15.48-12.727-31.547-12.727h-71.549l-20.67-41.136
			c-0.396-0.844-10.596-21.421-27.764-21.421c-14.201,0-24.434,18.251-25.166,19.617c-15.362,25.974-22.063,39.557-24.606,45.085
			H59.612c-0.813,0-20.388,0.014-29.107,13.496c-5.907,9.13-5.245,21.744,1.984,37.564l12.286,26.809
			c-5.869,1.636-12.484,4.605-18.187,9.993c-8.846,8.332-13.268,20.416-13.187,35.879c0.087,11.986,2.989,21.715,8.565,29.073
			c-15.449,12.6-18.319,31.436-13.464,46.652c5.987,18.753,24.664,35.244,52.928,29.767c46.375-8.999,66.59-49.693,70.636-58.942
			h6.049v-3.525h84.559v3.87h7.064c0.027,0.044,0.052,0.104,0.056,0.118c1.133,2.797,27.194,65.426,86.938,59.054
			c16.654-1.772,29.193-12.148,34.423-28.465C356.741,273.432,352.099,253.616,339.838,242.768z M339.106,210.743
			c0.139,10.907-2.719,19.677-8.532,26.183c-8.369-3.562-20.818-5.013-37.983,2.229V222.78h5.402
			c8.182,0,14.585-5.201,14.585-11.854c0-6.645-6.403-11.871-14.585-11.871h-5.402V173.46h6.591c0.341,0,18.16-0.463,29.774,10.615
			C335.556,190.374,338.963,199.352,339.106,210.743z M292.591,206.953h5.402c3.83,0,6.699,2.084,6.699,3.974
			c0,1.869-2.871,3.959-6.699,3.959h-5.402V206.953z M300.816,95.37c13.047,0,21.358,2.943,24.693,8.741
			c5.33,9.274-2.882,23.711-2.983,23.849c0.043-0.08-21.064,34.343-23.065,37.611c-0.213,0-0.352,0.008-0.412,0.008h-6.457v-4.12
			h-3.934h-20.81l11.819-21.037h-6.748h-17.06l-22.64-45.052C233.219,95.37,300.816,95.37,300.816,95.37z M230.562,252.373
			c0-6.895,0-76.124,0-83.017c6.446,0,47.706,0,54.16,0c0,6.894,0,76.122,0,83.017C278.268,252.373,237.008,252.373,230.562,252.373
			z M262.832,154.294l-3.002-5.979c2.067,0,4.303,0,6.357,0C265.103,150.228,263.92,152.334,262.832,154.294z M162.481,48.501
			l0.069-0.13c2.344-4.321,10.206-15.542,18.28-15.542c12.223,0,20.62,16.855,20.717,17.023
			c0.006,0.033,46.477,92.572,56.035,111.606h-34.908v5.061h-26.456l-11.879-26.409l0.711-1.288h-1.29l-22.129-49.184h-21.827
			C143.082,82.896,149.802,69.967,162.481,48.501z M130.216,252.032c-6.438,0-47.683,0-54.146,0c0-6.88,0-76.12,0-83.031
			c6.463,0,47.708,0,54.146,0C130.216,175.911,130.216,245.152,130.216,252.032z M91.637,146.723c0.825,0,4.658,0,6.109,0
			c-1.48,2.381-1.755,2.872-3.142,5.096C93.264,149.537,92.99,149.058,91.637,146.723z M98.139,161.112
			c3.219-5.224,7.546-12.237,8.879-14.389c23.408,0,55.992,0,64.613,0c-3.144,5.607-8.646,15.472-11.058,19.797h-22.458v-5.408
			h-3.943L98.139,161.112L98.139,161.112z M179.552,148.69c3.157,7.021,6.001,13.349,8.017,17.829h-17.961L179.552,148.69z
			 M138.114,206.953h84.559v7.934h-84.559L138.114,206.953L138.114,206.953z M222.674,199.056h-84.559v-24.653h84.559
			L222.674,199.056L222.674,199.056z M39.662,137.38c-6.025-13.14-6.888-23.21-2.552-29.925c6.35-9.872,22.326-9.952,22.474-9.952
			c0,0,92.109,0,96.948,0c1.019,2.266,10.066,22.386,18.582,41.318H77.951l12.911,22.29H68.177v4.466c-3.436,0-7.874,0-7.969,0
			c-0.625-0.029-3.481-0.138-7.499,0.351L39.662,137.38z M68.177,214.886h-4.974c-3.812,0-6.688-2.09-6.688-3.959
			c0-1.89,2.877-3.974,6.688-3.974h4.974V214.886z M21.304,213.348c-0.089-13.152,3.498-23.284,10.653-30.069
			c11.215-10.647,27.786-9.841,27.938-9.82h0.122h8.16v25.596h-4.974c-8.162,0-14.569,5.226-14.569,11.871
			c0,6.653,6.407,11.854,14.569,11.854h4.974v15.168c-7.403-3.753-21.211-8.675-34.806-2.494c-1.737,0.786-3.37,1.633-4.924,2.529
			C23.768,231.981,21.358,223.709,21.304,213.348z M59.922,311.107c-23.504,4.571-38.994-8.954-43.904-24.385
			c-4.835-15.1-0.311-34.556,20.62-44.094c13.289-6.036,27.832,2.068,31.538,4.392v12.908H123.3
			C117.239,271.989,97.935,303.764,59.922,311.107z M138.114,248.506V222.78h84.559v25.726H138.114z M343.629,288.583
			c-4.22,13.202-14.335,21.583-27.734,23.005c-48.473,5.164-72.109-39.34-77.561-51.314h54.258v-14.528l0.769,1.671
			c17.176-7.874,31.43-7.453,41.246,1.251C344.607,257.523,348.297,273.903,343.629,288.583z"/>
	</g>
</g>
<g>
	<path d="M425.338,222.407l40.136-104.51h14.899l42.773,104.51h-15.755l-12.19-31.652h-43.7l-11.478,31.652H425.338z
		 M455.493,179.491h35.431l-10.907-28.943c-3.327-8.792-5.799-16.016-7.414-21.672c-1.331,6.701-3.208,13.355-5.632,19.961
		L455.493,179.491z"/>
	<path d="M532.556,222.407v-75.709h11.478v10.622c2.376-3.707,5.536-6.688,9.481-8.946c3.944-2.257,8.436-3.387,13.474-3.387
		c5.607,0,10.205,1.165,13.794,3.493c3.588,2.329,6.119,5.585,7.593,9.767c5.988-8.84,13.782-13.26,23.383-13.26
		c7.509,0,13.283,2.08,17.323,6.238c4.039,4.159,6.06,10.563,6.06,19.212v51.97h-12.761v-47.692c0-5.133-0.417-8.827-1.248-11.085
		c-0.832-2.257-2.341-4.075-4.526-5.454c-2.187-1.378-4.753-2.067-7.699-2.067c-5.323,0-9.743,1.771-13.26,5.311
		c-3.518,3.542-5.275,9.209-5.275,17.003v43.985H577.54v-49.189c0-5.703-1.046-9.98-3.137-12.832
		c-2.092-2.852-5.514-4.277-10.266-4.277c-3.612,0-6.951,0.951-10.017,2.852c-3.065,1.901-5.287,4.682-6.665,8.341
		c-1.379,3.66-2.067,8.936-2.067,15.826v39.28H532.556z"/>
	<path d="M654.176,251.422V146.698h11.691v9.838c2.756-3.85,5.869-6.736,9.339-8.662c3.469-1.924,7.675-2.887,12.618-2.887
		c6.463,0,12.166,1.664,17.109,4.99c4.942,3.327,8.673,8.02,11.192,14.08c2.519,6.059,3.778,12.701,3.778,19.925
		c0,7.747-1.39,14.722-4.171,20.923c-2.779,6.203-6.82,10.956-12.119,14.258c-5.3,3.303-10.871,4.955-16.717,4.955
		c-4.277,0-8.116-0.903-11.514-2.709c-3.398-1.806-6.19-4.087-8.376-6.844v36.856H654.176z M665.796,184.98
		c0,9.743,1.972,16.943,5.917,21.601c3.944,4.658,8.721,6.986,14.329,6.986c5.703,0,10.586-2.411,14.649-7.236
		c4.063-4.822,6.096-12.297,6.096-22.42c0-9.647-1.985-16.871-5.953-21.672c-3.969-4.8-8.709-7.2-14.222-7.2
		c-5.466,0-10.302,2.556-14.508,7.663C667.898,167.812,665.796,175.238,665.796,184.98z"/>
	<path d="M784.777,213.068c-4.753,4.04-9.328,6.892-13.723,8.555c-4.397,1.663-9.114,2.495-14.151,2.495
		c-8.317,0-14.71-2.031-19.177-6.096c-4.468-4.063-6.701-9.255-6.701-15.576c0-3.707,0.843-7.094,2.531-10.158
		c1.686-3.066,3.896-5.525,6.629-7.379c2.732-1.854,5.811-3.255,9.232-4.206c2.519-0.665,6.32-1.307,11.406-1.925
		c10.36-1.235,17.988-2.709,22.884-4.42c0.047-1.758,0.071-2.875,0.071-3.351c0-5.228-1.212-8.911-3.636-11.05
		c-3.279-2.898-8.151-4.349-14.614-4.349c-6.036,0-10.492,1.059-13.367,3.173c-2.876,2.115-5.002,5.857-6.38,11.228l-12.547-1.711
		c1.141-5.37,3.018-9.706,5.632-13.011c2.613-3.302,6.392-5.846,11.335-7.627c4.942-1.783,10.669-2.674,17.181-2.674
		c6.463,0,11.715,0.761,15.755,2.281c4.039,1.521,7.01,3.435,8.911,5.738c1.9,2.307,3.231,5.217,3.992,8.733
		c0.428,2.187,0.642,6.131,0.642,11.834v17.109c0,11.93,0.272,19.475,0.819,22.634c0.546,3.162,1.628,6.191,3.244,9.09h-13.402
		C786.012,219.746,785.157,216.633,784.777,213.068z M783.708,184.41c-4.658,1.901-11.645,3.518-20.959,4.848
		c-5.275,0.761-9.007,1.616-11.192,2.566c-2.187,0.951-3.874,2.342-5.062,4.171c-1.188,1.83-1.782,3.861-1.782,6.095
		c0,3.422,1.294,6.273,3.885,8.555c2.59,2.281,6.381,3.422,11.371,3.422c4.942,0,9.339-1.08,13.188-3.243
		c3.85-2.162,6.677-5.121,8.483-8.876c1.378-2.898,2.067-7.176,2.067-12.832V184.41z"/>
	<path d="M816.429,222.407v-75.709h11.549v11.478c2.946-5.37,5.667-8.911,8.163-10.622c2.494-1.711,5.239-2.566,8.233-2.566
		c4.324,0,8.721,1.379,13.188,4.135l-4.42,11.905c-3.137-1.854-6.273-2.78-9.41-2.78c-2.805,0-5.323,0.845-7.557,2.531
		c-2.234,1.688-3.826,4.027-4.776,7.021c-1.426,4.563-2.139,9.553-2.139,14.971v39.637H816.429z"/>
	<path d="M860.415,184.553c0-14.02,3.896-24.404,11.691-31.153c6.511-5.607,14.447-8.412,23.811-8.412
		c10.408,0,18.915,3.411,25.521,10.23c6.605,6.82,9.909,16.242,9.909,28.266c0,9.743-1.462,17.407-4.384,22.99
		c-2.924,5.586-7.178,9.922-12.762,13.011c-5.585,3.089-11.68,4.634-18.285,4.634c-10.599,0-19.166-3.397-25.699-10.194
		C863.681,207.128,860.415,197.338,860.415,184.553z M873.603,184.553c0,9.695,2.114,16.956,6.345,21.778
		c4.229,4.825,9.553,7.236,15.969,7.236c6.368,0,11.667-2.424,15.897-7.271c4.229-4.848,6.345-12.237,6.345-22.171
		c0-9.362-2.128-16.455-6.381-21.28c-4.254-4.822-9.541-7.235-15.861-7.235c-6.416,0-11.739,2.4-15.969,7.2
		C875.718,167.61,873.603,174.857,873.603,184.553z"/>
	<path d="M950.025,222.407v-14.614h14.614v14.614H950.025z"/>
	<path d="M984.386,171.507c0-17.347,4.657-30.927,13.973-40.742c9.314-9.813,21.339-14.721,36.072-14.721
		c9.647,0,18.345,2.306,26.092,6.915c7.746,4.61,13.651,11.039,17.716,19.284c4.063,8.246,6.095,17.597,6.095,28.052
		c0,10.599-2.139,20.08-6.416,28.444c-4.277,8.365-10.337,14.698-18.179,18.998c-7.842,4.303-16.302,6.452-25.379,6.452
		c-9.838,0-18.631-2.376-26.377-7.129c-7.747-4.752-13.616-11.239-17.608-19.462C986.383,189.377,984.386,180.68,984.386,171.507z
		 M998.644,171.721c0,12.595,3.386,22.517,10.159,29.763c6.771,7.249,15.267,10.872,25.485,10.872
		c10.408,0,18.974-3.659,25.7-10.979c6.724-7.318,10.087-17.703,10.087-31.153c0-8.507-1.438-15.934-4.313-22.277
		c-2.876-6.346-7.082-11.264-12.617-14.758c-5.538-3.492-11.752-5.239-18.643-5.239c-9.791,0-18.215,3.363-25.271,10.087
		C1002.173,144.763,998.644,155.99,998.644,171.721z"/>
	<path d="M1100.516,222.407v-75.709h11.549v10.765c5.561-8.316,13.592-12.476,24.096-12.476c4.563,0,8.756,0.82,12.583,2.459
		c3.824,1.641,6.688,3.791,8.59,6.452c1.9,2.662,3.231,5.822,3.992,9.481c0.475,2.377,0.713,6.535,0.713,12.476v46.552h-12.832
		v-46.053c0-5.228-0.499-9.136-1.497-11.727c-0.998-2.59-2.77-4.657-5.312-6.203c-2.543-1.543-5.524-2.316-8.946-2.316
		c-5.466,0-10.184,1.735-14.151,5.204c-3.969,3.47-5.952,10.052-5.952,19.747v41.348H1100.516z"/>
	<path d="M1181.429,222.407v-104.51h12.832v104.51H1181.429z"/>
	<path d="M1214.222,132.654v-14.757h12.832v14.757H1214.222z M1214.222,222.407v-75.709h12.832v75.709H1214.222z"/>
	<path d="M1246.588,222.407v-75.709h11.549v10.765c5.561-8.316,13.592-12.476,24.096-12.476c4.563,0,8.756,0.82,12.583,2.459
		c3.824,1.641,6.688,3.791,8.59,6.452c1.9,2.662,3.231,5.822,3.992,9.481c0.475,2.377,0.713,6.535,0.713,12.476v46.552h-12.832
		v-46.053c0-5.228-0.499-9.136-1.497-11.727c-0.998-2.59-2.77-4.657-5.312-6.203c-2.543-1.543-5.524-2.316-8.946-2.316
		c-5.466,0-10.184,1.735-14.151,5.204c-3.969,3.47-5.952,10.052-5.952,19.747v41.348H1246.588z"/>
	<path d="M1379.613,198.026l13.26,1.64c-2.092,7.747-5.965,13.759-11.62,18.036c-5.656,4.277-12.88,6.416-21.672,6.416
		c-11.074,0-19.854-3.409-26.341-10.23c-6.488-6.818-9.731-16.384-9.731-28.693c0-12.736,3.279-22.622,9.838-29.656
		c6.559-7.033,15.065-10.551,25.521-10.551c10.123,0,18.393,3.446,24.809,10.337c6.416,6.892,9.624,16.587,9.624,29.086
		c0,0.761-0.024,1.901-0.071,3.422h-56.461c0.475,8.317,2.827,14.686,7.058,19.105c4.229,4.42,9.505,6.63,15.826,6.63
		c4.705,0,8.721-1.235,12.048-3.707C1375.026,207.39,1377.664,203.444,1379.613,198.026z M1337.481,177.281h42.274
		c-0.57-6.368-2.187-11.145-4.848-14.329c-4.088-4.942-9.387-7.414-15.897-7.414c-5.894,0-10.849,1.973-14.864,5.917
		C1340.13,165.4,1337.909,170.676,1337.481,177.281z"/>
</g>
</svg>
