<?xml version="1.0" encoding="utf-8"?>
<!-- Generator: Adobe Illustrator 17.0.0, SVG Export Plug-In . SVG Version: 6.00 Build 0)  -->
<!DOCTYPE svg PUBLIC "-//W3C//DTD SVG 1.1//EN" "http://www.w3.org/Graphics/SVG/1.1/DTD/svg11.dtd">
<svg version="1.1" id="Layer_1" xmlns="http://www.w3.org/2000/svg" xmlns:xlink="http://www.w3.org/1999/xlink" x="0px" y="0px"
	 width="526.406px" height="344.873px" viewBox="0 0 526.406 344.873" enable-background="new 0 0 526.406 344.873"
	 xml:space="preserve">
<g>
	<g>
		<path d="M442.794,254.658c-0.79-0.704-1.685-1.438-2.681-2.167c7.513-9.128,11.24-21.009,11.043-35.383
			c-0.197-15.934-5.16-28.646-14.802-37.805c-9.628-9.175-21.815-12.714-30.449-14.075l24.561-40.058
			c0.575-0.953,12.486-21.717,3.587-37.158c-5.643-9.85-18.097-14.879-36.88-14.879h-83.645l-24.165-48.09
			C288.9,24.056,276.976,0,256.905,0c-16.602,0-28.565,21.337-29.421,22.933c-17.959,30.365-25.793,46.245-28.766,52.707h-83.525
			c-0.951,0-23.835,0.016-34.028,15.778c-6.906,10.674-6.132,25.42,2.319,43.915l14.363,31.341
			c-6.861,1.913-14.594,5.384-21.262,11.682c-10.341,9.741-15.511,23.868-15.416,41.945c0.102,14.012,3.494,25.386,10.013,33.988
			c-18.061,14.73-21.416,36.75-15.74,54.539c6.999,21.923,28.834,41.202,61.876,34.799c54.215-10.52,77.848-58.094,82.578-68.907
			h7.072v-4.121h98.855v4.524h8.258c0.032,0.052,0.061,0.122,0.066,0.138c1.325,3.27,31.792,76.487,101.636,69.038
			c19.469-2.072,34.128-14.202,40.242-33.277C462.555,290.507,457.128,267.34,442.794,254.658z M441.939,217.219
			c0.163,12.751-3.179,23.004-9.975,30.61c-9.784-4.164-24.337-5.86-44.404,2.606v-19.143h6.315c9.565,0,17.051-6.08,17.051-13.858
			c0-7.769-7.486-13.878-17.051-13.878h-6.315v-29.923h7.705c0.399,0,21.23-0.541,34.808,12.409
			C437.788,193.407,441.771,203.902,441.939,217.219z M387.56,212.788h6.315c4.477,0,7.832,2.436,7.832,4.646
			c0,2.185-3.356,4.628-7.832,4.628h-6.315V212.788z M397.175,82.341c15.253,0,24.969,3.44,28.868,10.219
			c6.231,10.842-3.369,27.72-3.487,27.881c0.05-0.093-24.625,40.149-26.964,43.969c-0.249,0-0.412,0.009-0.482,0.009h-7.549v-4.816
			h-4.599h-24.328l13.817-24.593h-7.889h-19.944L318.15,82.341H397.175z M315.044,265.887c0-8.061,0-88.994,0-97.052
			c7.536,0,55.771,0,63.316,0c0,8.059,0,88.991,0,97.052C370.815,265.887,322.58,265.887,315.044,265.887z M352.769,151.227
			l-3.51-6.99c2.416,0,5.031,0,7.432,0C355.425,146.474,354.041,148.935,352.769,151.227z M235.453,27.548l0.081-0.152
			c2.74-5.052,11.931-18.169,21.371-18.169c14.29,0,24.106,19.704,24.219,19.901c0.007,0.038,54.335,108.222,65.508,130.474h-40.81
			v5.917h-30.929l-13.887-30.874l0.831-1.506h-1.508l-25.87-57.499h-25.517C212.775,67.758,220.63,52.644,235.453,27.548z
			 M197.733,265.488c-7.527,0-55.744,0-63.3,0c0-8.043,0-88.989,0-97.068c7.556,0,55.773,0,63.3,0
			C197.733,176.499,197.733,257.445,197.733,265.488z M152.632,142.376c0.965,0,5.446,0,7.142,0
			c-1.73,2.783-2.052,3.358-3.673,5.957C154.534,145.666,154.214,145.106,152.632,142.376z M160.233,159.197
			c3.763-6.107,8.822-14.306,10.38-16.822c27.365,0,65.458,0,75.537,0c-3.675,6.555-10.108,18.088-12.927,23.144h-26.255v-6.322
			h-4.61L160.233,159.197L160.233,159.197z M255.41,144.676c3.691,8.208,7.015,15.606,9.372,20.843h-20.997L255.41,144.676z
			 M206.967,212.788h98.855v9.275h-98.855L206.967,212.788L206.967,212.788z M305.822,203.556h-98.855v-28.821h98.855V203.556z
			 M91.87,131.454c-7.044-15.361-8.052-27.134-2.984-34.984c7.423-11.541,26.101-11.634,26.273-11.634c0,0,107.681,0,113.338,0
			c1.191,2.649,11.768,26.171,21.724,48.303H136.632l15.094,26.058h-26.52v5.221c-4.017,0-9.205,0-9.316,0
			c-0.731-0.034-4.069-0.161-8.767,0.41L91.87,131.454z M125.206,222.063h-5.815c-4.456,0-7.819-2.443-7.819-4.628
			c0-2.21,3.363-4.646,7.819-4.646h5.815V222.063z M70.409,220.265c-0.104-15.375,4.089-27.22,12.454-35.152
			c13.111-12.447,32.484-11.505,32.661-11.48h0.143h9.54v29.923h-5.815c-9.542,0-17.032,6.109-17.032,13.878
			c0,7.778,7.49,13.858,17.032,13.858h5.815v17.732c-8.654-4.388-24.797-10.142-40.69-2.916c-2.031,0.919-3.94,1.909-5.756,2.957
			C73.289,242.048,70.472,232.377,70.409,220.265z M115.555,334.551c-27.478,5.344-45.586-10.468-51.326-28.508
			c-5.652-17.653-0.364-40.398,24.106-51.548c15.536-7.056,32.537,2.418,36.87,5.135v15.09h64.443
			C182.562,288.82,159.995,325.967,115.555,334.551z M206.967,261.367v-30.075h98.855v30.075H206.967z M447.226,308.219
			c-4.934,15.434-16.759,25.232-32.423,26.894c-56.668,6.037-84.3-45.991-90.674-59.989h63.431V258.14l0.899,1.954
			c20.08-9.205,36.743-8.713,48.219,1.463C448.369,271.908,452.683,291.057,447.226,308.219z"/>
	</g>
</g>
</svg>
