<?xml version="1.0" encoding="utf-8"?>
<!-- Generator: Adobe Illustrator 17.0.0, SVG Export Plug-In . SVG Version: 6.00 Build 0)  -->
<!DOCTYPE svg PUBLIC "-//W3C//DTD SVG 1.1//EN" "http://www.w3.org/Graphics/SVG/1.1/DTD/svg11.dtd">
<svg version="1.1" id="Layer_1" xmlns="http://www.w3.org/2000/svg" xmlns:xlink="http://www.w3.org/1999/xlink" x="0px" y="0px"
	 width="512px" height="512px" viewBox="0 0 512 512" enable-background="new 0 0 512 512" xml:space="preserve">
<g>
	<path fill="#464646" d="M248.953,61.274c-5.367-1.238-10.723,2.102-11.965,7.469s2.105,10.727,7.473,11.969
		c24.813,5.734,47.492,18.332,65.582,36.422c53.184,53.184,53.184,139.727,0,192.91c-53.184,53.188-139.727,53.188-192.91,0
		c-53.188-53.184-53.188-139.727,0-192.91c15.27-15.27,33.34-26.406,53.711-33.109c5.23-1.719,8.078-7.355,6.359-12.59
		c-1.723-5.234-7.363-8.082-12.594-6.359c-23.367,7.684-44.086,20.453-61.582,37.953c-60.965,60.965-60.965,160.16,0,221.125
		c30.48,30.48,70.52,45.723,110.563,45.723c40.039-0.004,80.078-15.242,110.563-45.723c60.961-60.965,60.961-160.16,0-221.125
		C303.414,82.293,277.414,67.852,248.953,61.274z"/>
	<path fill="#464646" d="M498.414,432.707L393.883,328.176c53.602-84.055,41.863-194.484-29.266-265.617
		C324.277,22.219,270.641,0,213.59,0C156.535,0,102.898,22.219,62.559,62.559C22.215,102.899,0,156.535,0,213.59
		c0,57.051,22.215,110.688,62.559,151.027c40.34,40.34,93.973,62.555,151.023,62.555c40.945,0,80.387-11.484,114.594-33.289
		l104.531,104.531c8.746,8.75,20.414,13.566,32.855,13.566c12.438,0,24.105-4.816,32.855-13.566
		C516.527,480.297,516.527,450.824,498.414,432.707z M484.309,484.309c-4.98,4.977-11.637,7.719-18.746,7.719
		c-7.113,0-13.77-2.742-18.75-7.719L336.508,374.004c-1.93-1.934-4.484-2.922-7.055-2.922c-1.977,0-3.961,0.582-5.684,1.777
		c-32.41,22.48-70.516,34.363-110.188,34.363c-51.723,0-100.348-20.141-136.918-56.711c-75.5-75.5-75.5-198.348,0-273.848
		c36.574-36.574,85.199-56.715,136.926-56.715c51.723,0,100.348,20.141,136.922,56.715c66.281,66.285,75.684,170.207,22.348,247.105
		c-2.75,3.965-2.27,9.324,1.145,12.738l110.305,110.305C494.645,457.149,494.645,473.969,484.309,484.309z"/>
	<path fill="#464646" d="M273.805,153.371c-3.895-3.895-10.207-3.895-14.105,0l-46.109,46.109l-46.113-46.109
		c-3.895-3.895-10.211-3.895-14.105,0s-3.895,10.211,0,14.105l46.109,46.113l-46.109,46.109c-3.895,3.895-3.895,10.211,0,14.105
		c1.945,1.949,4.5,2.922,7.051,2.922c2.555,0,5.105-0.973,7.055-2.922l46.109-46.109l46.109,46.109
		c1.949,1.949,4.504,2.922,7.055,2.922c2.555,0,5.105-0.973,7.055-2.922c3.895-3.895,3.895-10.211,0-14.105l-46.113-46.109
		l46.113-46.113C277.699,163.582,277.699,157.266,273.805,153.371z"/>
	<path fill="#464646" d="M206.977,77.328c5.492,0,9.973-4.48,9.973-9.977c0-5.492-4.48-9.973-9.973-9.973
		c-5.496,0-9.977,4.48-9.977,9.973C197,72.848,201.48,77.328,206.977,77.328z"/>
</g>
</svg>
