<?xml version="1.0" encoding="utf-8"?>
<!-- Generator: Adobe Illustrator 17.0.0, SVG Export Plug-In . SVG Version: 6.00 Build 0)  -->
<!DOCTYPE svg PUBLIC "-//W3C//DTD SVG 1.1//EN" "http://www.w3.org/Graphics/SVG/1.1/DTD/svg11.dtd">
<svg version="1.1" id="Capa_1" xmlns="http://www.w3.org/2000/svg" xmlns:xlink="http://www.w3.org/1999/xlink" x="0px" y="0px"
	 width="670px" height="670px" viewBox="0 0 670 670" enable-background="new 0 0 670 670" xml:space="preserve">
<g>
	<g>
		<path fill="#FFFFFF" d="M237.302,0C106.457,0,0.01,106.446,0.01,237.291s106.446,237.291,237.291,237.291
			s237.291-106.446,237.291-237.291S368.148,0,237.302,0z M237.302,446.666c-115.464,0-209.375-93.911-209.375-209.375
			S121.838,27.916,237.302,27.916s209.375,93.911,209.375,209.375S352.765,446.666,237.302,446.666z"/>
	</g>
</g>
<g>
	<g>
		<path fill="#FFFFFF" d="M665.907,646.188L405.082,385.361c-5.444-5.444-14.294-5.444-19.738,0s-5.444,14.294,0,19.738
			l260.825,260.825c2.736,2.707,6.309,4.076,9.883,4.076s7.146-1.367,9.855-4.076C671.35,660.48,671.35,651.631,665.907,646.188z"/>
	</g>
</g>
</svg>
