<?xml version="1.0" encoding="utf-8"?>
<!-- Generator: Adobe Illustrator 17.0.0, SVG Export Plug-In . SVG Version: 6.00 Build 0)  -->
<!DOCTYPE svg PUBLIC "-//W3C//DTD SVG 1.1//EN" "http://www.w3.org/Graphics/SVG/1.1/DTD/svg11.dtd">
<svg version="1.1" id="Capa_1" xmlns="http://www.w3.org/2000/svg" xmlns:xlink="http://www.w3.org/1999/xlink" x="0px" y="0px"
	 width="670px" height="492.271px" viewBox="0 88.866 670 492.271" enable-background="new 0 88.866 670 492.271"
	 xml:space="preserve">
<g>
	<g>
		<path fill="#FFFFFF" d="M570.7,88.866H100.123C45.055,88.866,0,133.919,0,188.988v292.025
			c0,55.068,45.055,100.123,100.123,100.123h469.743c55.068,0,100.123-45.055,100.123-100.123V188.988
			C670.823,133.919,625.768,88.866,570.7,88.866z M468.909,343.344c-1.669,2.503-3.337,4.172-5.841,5.841L268.663,464.326
			c-8.344,5.006-18.356,1.669-22.528-5.841c-1.669-2.503-2.503-5.006-2.503-8.344V219.86c0-9.178,7.509-16.687,16.687-16.687
			c2.503,0,5.84,0.834,8.344,2.503l194.405,115.141C470.577,325.821,473.915,335.834,468.909,343.344z"/>
	</g>
</g>
</svg>
